<svg xmlns="http://www.w3.org/2000/svg" viewBox="0 0 40 40">
  <g fill="none" stroke-width="2" stroke="#000">
    <path d="M 5,3L 35,3C 36.1,3 37,3.9 37,5L 37,35C 37,36.1 36.1,37 35,37L 5,37C 3.9,37 3,36.1 3,35L 3,5C 3,3.9 3.9,3 5,3 Z "/>
    <line x1="17" y1="11" x2="32" y2="11"/>
    <line x1="8" y1="11" x2="14" y2="11"/>
    <line x1="8" y1="17" x2="14" y2="17"/>
    <line x1="17" y1="23" x2="32" y2="23"/>
    <line x1="8" y1="23" x2="14" y2="23"/>
    <line x1="8" y1="29" x2="14" y2="29"/>
    <line x1="17" y1="29" x2="32" y2="29"/>
    <line x1="17" y1="17" x2="32" y2="17"/>
  </g>
</svg>