<svg xmlns="http://www.w3.org/2000/svg" width="30" height="30" viewBox="0 0 30 30">  
  <path fill="none" stroke-linejoin="round" stroke="#000"
    d="M7.88,22.75C 7.88,22.75 9.02,19.45 11,16.89C 12.83,14.51 15.42,13.76 17.67,11.76C 20.30,9.48 20.62,7.57 21.44,5.85
    M3.26,14.27C 3.26,14.27 6.74,15.4 10.28,17.46C 13.82,19.52 17.7,22.34 18.76,23.05
    M11.57,25.18C 11.57,25.18 12.6,21.9 14.79,19.24C 16.98,16.59 19.13,15.4 21.23,13.12C 23.32,10.84 24.23,8.68 24.92,6.87
    M12.1,6.77C 12.1,6.77 14.19,8.59 18,10.44C 22.23,12.5 24.2,13.1 26,13.73
    M4.27,20.54C 4.27,20.54 5.09,17.64 7.09,15.36C 9.09,13.08 10.63,12.38 12.43,11.45C 13.74,10.78 15.22,9.37 16.06,8.36C 16.89,7.34 18.04,5.1 18.31,4.17
    M7.89,10.04C 7.89,10.04 12.23,12.24 14.37,13.41C 16.52,14.58 22.69,18 22.69,18
    M29.03,7.84C 29.03,7.84 27.74,10.98 26.01,13.73C 24.28,16.48 21.61,18.98 19.7,21.53C 17.78,24.07 16.47,27.2 15.95,29.12C 14.61,27.72 12.04,25.61 10.56,24.49C 9.07,23.36 5.84,21.32 4.51,20.66C 3.18,20 1.99,19.77 0.97,19.68C 1.53,17.07 2.97,14.34 4.47,12.8C 5.97,11.25 8.26,9.88 9.16,9.34C 10.06,8.8 11.79,7.42 12.93,5.65C 14.08,3.88 14.72,1.73 14.94,1.01C 15.22,1.59 16.11,2.62 17.07,3.38C 18.19,4.28 19.7,5.5 22.49,6.34C 24.69,7 26,7.27 29,7.84Z"/>
</svg>
