<svg xmlns="http://www.w3.org/2000/svg" viewBox="0 0 415.00 480.00"><path fill="#2191AB" d="M 93.0732,477.271L 87.7607,475.834L 89.1773,468.5L 114.917,435.458L 105.932,435.375L 109.307,431L 116.333,430.875L 173.083,322.667L 177.083,309.667L 190,305.188L 246.25,255.417L 258.375,245.667L 272.891,234L 273.75,229.667L 264.25,236.917L 230.094,259.026C 220.969,264.637 211.844,270.248 204.287,273.355C 196.729,276.461 190.74,277.064 184.75,277.667L 173.802,273.86C 174.045,269.013 174.288,264.165 175.847,258.043C 177.406,251.921 180.281,244.526 188.674,233.397C 197.066,222.269 210.976,207.408 224.885,192.548L 130.375,195.833L 115.25,200.277L 105.25,199.5L 38.9167,251.25L 12.0834,247.667L 5.35424,249.173L 2.37508,245.667L 5.91674,239.548L 36.8126,241.589L 101.333,192.125L 111.167,183.958L 139.249,185.613L 190.083,181.155L 169.917,171.625L 171.25,166.625L 178.25,165.958L 194.375,174.958L 208.417,149.667L 216.75,149.667L 248.583,149.667L 262.083,154.292C 265.806,149.625 269.528,144.958 275.194,140.208C 280.861,135.458 288.472,130.625 296.083,125.792L 296.417,120.792L 287.917,109.625C 287.198,106.189 286.479,102.753 288.09,101.392C 289.702,100.031 293.642,100.745 297.583,101.458L 301.75,109.083L 304,108.708L 303.5,103.083L 298.49,99.0477L 300.75,93.9584L 307.125,94.0834L 309.75,97.2084L 309.417,110.292L 312.583,112.625L 313.75,109.625L 315.578,105.854L 321.495,103.604L 328.495,104.438C 329.689,98.0211 330.884,91.6044 331.064,80.0627C 331.245,68.5211 330.412,51.8544 328.794,38.8023C 327.177,25.7502 324.776,16.3126 322.375,6.87503L 322.375,2.50003L 326.219,3.71436C 329.075,13.8166 331.931,23.9188 333.734,36.8589C 335.537,49.7989 336.287,65.5766 336.357,77.4204C 336.427,89.2641 335.818,97.1737 335.208,105.083L 337.458,105.458L 349.333,94.4167C 353.944,90.75 358.556,87.0834 365.167,82.8334C 371.778,78.5834 380.389,73.75 389,68.9167L 407.833,60.4167L 414,60.0834L 411.344,64.4644C 407.76,65.9227 404.177,67.381 397.355,70.5572C 390.533,73.7333 380.472,78.6272 371.483,84.6376C 362.493,90.648 354.575,97.7749 349.89,102.283C 345.205,106.79 343.754,108.679 342.302,110.567L 346.511,115.651C 347.802,117.942 349.094,120.234 350.052,124.463C 351.011,128.692 351.636,134.859 350.588,138.776C 349.541,142.692 346.821,144.359 343.64,144.755C 340.46,145.151 336.818,144.276 333.177,143.401L 332.052,154.963L 340.115,159.817L 376.101,165.817L 394.823,160.86L 394.828,157L 401.245,155.917L 404.995,162L 399.5,167.667L 397.75,165.042L 387.078,169.5L 386.375,174.292L 380.625,178.708L 374.641,178.521L 371.974,175.188L 328.958,166.958L 319.677,175.256L 319.292,187.375L 321.719,204.256L 321.719,247.858L 352.292,281.833L 369.458,302.833L 374.458,305.167L 374.125,315.167L 369.958,317.167L 363.958,314.667L 362.958,309.667L 358.292,303L 349.292,293.333L 322.375,265.833L 309.458,252.333L 310.849,206.75L 305.625,201C 300.984,212.063 296.344,223.125 290.774,232.865C 285.203,242.604 278.703,251.021 269.453,259.979C 260.203,268.938 248.203,278.438 235.421,287.174C 222.639,295.911 209.075,303.885 195.51,311.858L 194.375,320.833L 187.375,325.333L 181.375,326.833L 158.792,370L 124.583,435L 127.167,441.875L 123.917,446.5L 120.807,441.5L 105.391,462.438L 100.724,463.854L 99.5264,475.98L 93.0732,477.271 Z M 200.49,179.109L 239.584,176.599L 254.959,160.849L 246.448,156.588L 213.156,156.609L 200.49,179.109 Z "/></svg>