<svg xmlns="http://www.w3.org/2000/svg" width="30" height="30" viewBox="0 0 30 30">
  <g stroke="#000"> 
    <path fill="none" stroke-linejoin="round" d="M15.04,7.92L 25.88,4.69L 14.93,1.6L 4.1,4.83L 15.04,7.92"/>
    <line x1="14.92" y1="7.83" x2="14.92" y2="18.89"/>
    <line x1="24.45" y1="25.59" x2="24.45" y2="28.95"/>
    <line x1="5.06" y1="26.2" x2="5.06" y2="28.97"/>
    <line x1="11.08" y1="26.78" x2="11.08" y2="29"/>
    <line x1="17.98" y1="27" x2="17.98" y2="29"/>
    <line x1="4.09" y1="4.83" x2="4.09" y2="15.62"/>
    <line x1="6.43" y1="7.44" x2="6.43" y2="10.26"/>
    <line x1="12.43" y1="9.43" x2="12.43" y2="12.25"/>
    <line x1="9.35" y1="8.61" x2="9.35" y2="11.42"/>
    <line x1="25.84" y1="4.73" x2="25.84" y2="14.7"/>
    <line x1="17.55" y1="9.41" x2="17.55" y2="12.23"/>
    <line x1="23.43" y1="7.56" x2="23.43" y2="10.38"/>
    <line x1="20.48" y1="8.54" x2="20.48" y2="11.36"/>
    <line x1="17.52" y1="14.17" x2="17.52" y2="17"/>
    <line x1="23.4" y1="12.32" x2="23.4" y2="14.56"/>
    <line x1="20.45" y1="13.3" x2="20.45" y2="16.12"/>
    <line x1="6.5" y1="12.23" x2="6.5" y2="15.05"/>
    <line x1="12.5" y1="14.23" x2="12.5" y2="16.1"/>
    <line x1="9.42" y1="13.4" x2="9.42" y2="16.22"/>
    <ellipse fill="#fff" cx="11.08" cy="21.2" rx="3.9" ry="5.57"/>
    <ellipse fill="#fff" cx="5.06" cy="20.76" rx="3.47" ry="5.44"/>
    <ellipse fill="#fff" cx="24.54" cy="19.97" rx="3.9" ry="5.69"/>
    <ellipse fill="#fff" cx="17.98" cy="22.4" rx="4.59" ry="4.59"/>
  </g>
</svg>
